<svg style="border-radius: 25px;" width="128px" height="128px" viewBox="0 0 512 512" version="1.1" xmlns="http://www.w3.org/2000/svg" xmlns:xlink="http://www.w3.org/1999/xlink">
<desc>Created with Sketch.</desc>
<defs>
<linearGradient x1="17.9261133%" y1="0%" x2="94.1395538%" y2="100%" id="linearGradient-1">
<stop stop-color="#383A4A" offset="0%"></stop>
<stop stop-color="#000000" offset="100%"></stop>
</linearGradient>
</defs>
<g id="Page-1" stroke="none" stroke-width="1" fill="none" fill-rule="evenodd">
<g id="Icon">
<g id="Smooth-Corners">
<path d="M146.141456,-5.90428975e-15 C95.3248882,3.43056238e-15 76.8975727,5.29105984 58.3197949,15.2265641 C39.7420171,25.1620684 25.1620684,39.7420171 15.2265641,58.3197949 C5.29105984,76.8975727 -2.28704159e-15,95.3248882 3.93619317e-15,146.141456 L0,0 L146.141456,0 Z M365.858544,0 L512,0 L512,146.141456 C512,95.3248882 506.70894,76.8975727 496.773436,58.3197949 C486.837932,39.7420171 472.257983,25.1620684 453.680205,15.2265641 C435.102427,5.29105984 416.675112,-3.43056238e-15 365.858544,5.90428975e-15 Z M512,365.858544 L512,512 L365.858544,512 C416.675112,512 435.102427,506.70894 453.680205,496.773436 C472.257983,486.837932 486.837932,472.257983 496.773436,453.680205 C506.70894,435.102427 512,416.675112 512,365.858544 Z M146.141456,512 L0,512 L0,365.858544 C2.28704159e-15,416.675112 5.29105984,435.102427 15.2265641,453.680205 C25.1620684,472.257983 39.7420171,486.837932 58.3197949,496.773436 C76.8975727,506.70894 95.3248882,512 146.141456,512 Z" fill="#000000"></path>
<rect id="Rectangle-2" fill="url(#linearGradient-1)" x="0" y="0" width="512" height="512"></rect>
<g id="OBS" stroke-width="1" transform="translate(36.000000, 36.000000)" fill="#FFFFFF">
<g id="#ffffffff" fill-rule="nonzero">
<path d="M190.817094,2.4025515 C237.731624,-3.88836344 286.639316,5.32198807 327.781197,28.8281612 C374.150427,54.8959046 410.422222,98.404927 427.533333,148.845257 C443.459829,195.06653 443.309402,246.6558 427.119658,292.782898 C409.181197,344.673528 370.916239,389.048964 322.403419,414.57049 C258.753846,448.812656 178.030769,448.285274 114.832479,413.214365 C69.8547009,388.709933 33.9213675,347.969666 15.4,300.147412 C-2.87692308,253.643612 -4.45641026,200.867733 10.774359,153.30917 C24.7264957,109.235095 53.1384615,70.0204695 90.4068376,42.7661165 C119.796581,21.1811209 154.676923,7.11132016 190.817094,2.4025515 Z M189.105983,23.3094844 C147.155556,29.8264202 107.536752,50.3566516 77.9777778,80.8694725 C42.4393162,116.919805 21.4735043,167.039939 21.3230769,217.762795 C20.5897436,262.100561 35.3880342,306.494832 62.4837607,341.565741 C90.8769231,378.783848 132.733333,405.473149 178.519658,415.097872 C223.403419,424.779101 271.596581,418.35634 312.230769,396.86552 C356.249573,373.943234 391.035897,333.937536 407.601709,287.094705 C424.261538,240.647411 422.870085,187.946872 403.502564,142.554342 C385.112821,98.8004636 350.533333,62.1474083 307.94359,41.2969807 C271.464957,23.1588038 229.307692,16.9620642 189.105983,23.3094844 Z" id="Shape"></path>
</g>
<g id="#c4c2c4ff" transform="translate(96.000000, 36.000000)" fill-rule="nonzero">
<path d="M17.3650307,74.1525584 C23.7853988,43.073209 44.8111656,15.1356583 73.1020859,0.800026178 C68.1835583,5.8043282 62.2137423,9.66102712 57.6894479,15.0792188 C39.0666258,35.228119 30.637546,64.3697123 35.7813497,91.3666048 C42.2768098,132.304053 80.6300613,165.546916 122.174724,165.0954 C154.426748,166.544014 186.040491,147.937793 201.77227,119.906177 C235.563681,121.05378 268.416442,138.531211 287.583681,166.562827 C297.458282,181.218283 305.173988,198.37589 305.699632,216.248397 C299.466994,192.543809 283.716442,171.473063 262.258896,159.583143 C241.495951,147.881354 216.020982,144.890061 193.193006,151.813305 C164.695583,160.015846 141.154233,183.40061 132.743926,211.902556 C125.83546,234.798178 128.801595,260.045446 139.63362,281.229071 C124.558896,307.379371 97.3380368,326.09847 67.7705521,331.685981 C45.0552147,336.464525 21.1571779,332.777144 0.131411043,323.220056 C19.0733742,328.751127 39.629816,329.710598 58.4215951,323.013111 C83.6712883,314.62244 104.546871,294.304221 113.726871,269.263898 C123.920613,241.984808 120.034601,209.720229 102.894847,186.07208 C90.0728834,167.635178 69.9482209,154.597654 48.0213497,150.026055 C41.0941104,148.784386 34.0542331,148.219991 27.0331288,147.580343 C15.9007362,125.042171 11.7894479,98.8354315 17.3650307,74.1525584 Z" id="Shape"></path>
</g>
</g>
</g>
</g>
</g>
</svg>